<?xml version="1.0" encoding="UTF-8"?>
<svg width="47px" height="47px" viewBox="0 0 47 47" version="1.1" xmlns="http://www.w3.org/2000/svg" xmlns:xlink="http://www.w3.org/1999/xlink">
    <!-- Generator: Sketch 58 (84663) - https://sketch.com -->
    <title>ic_search</title>
    <desc>Created with Sketch.</desc>
    <g id="Page-1" stroke="none" stroke-width="1" fill="none" fill-rule="evenodd">
        <g id="DropdownSearchBox" transform="translate(-170.000000, -182.000000)" fill="#AAAAAA" fill-rule="nonzero">
            <g id="ic_search" transform="translate(170.000000, 182.000000)">
                <path d="M33.5263158,29.5789474 L31.4473684,29.5789474 L30.7105263,28.8684211 C36.7076084,21.8812407 36.1088789,11.4032991 29.35491,5.14473805 C22.6009412,-1.11382302 12.1078068,-0.914150155 5.59682834,5.59682834 C-0.914150155,12.1078068 -1.11382302,22.6009412 5.14473805,29.35491 C11.4032991,36.1088789 21.8812407,36.7076084 28.8684211,30.7105263 L29.5789474,31.4473684 L29.5789474,33.5263158 L42.7368421,46.6578947 L46.6578947,42.7368421 L33.5263158,29.5789474 Z M17.7368421,29.5789579 C12.9471576,29.5789579 8.62909633,26.6937111 6.79616343,22.2686196 C4.96323053,17.8435281 5.9763908,12.7500275 9.36320917,9.36320917 C12.7500275,5.9763908 17.8435281,4.96323053 22.2686196,6.79616343 C26.6937111,8.62909633 29.5789579,12.9471576 29.5789579,17.7368421 C29.5831451,20.8788487 28.3368464,23.8933741 26.1151102,26.1151102 C23.8933741,28.3368464 20.8788487,29.5831451 17.7368421,29.5789579 Z" id="ic_search_24px"></path>
            </g>
        </g>
    </g>
</svg>